<svg height="33" viewBox="0 0 261 33" width="261" xmlns="http://www.w3.org/2000/svg"><path clip-rule="evenodd" d="m8.69652 7.99881h2.63938c2.5101 0 4.0246.52468 5.3224 1.79114 1.2548 1.26775 1.9902 3.23535 1.9902 5.55185 0 1.9662-.5194 3.7587-1.4708 5.0264-1.0825 1.4423-2.64 2.0981-5.0197 2.0535h-3.46148zm-8.69652-7.299669v29.110159h12.7211c5.0184 0 8.091-1.0055 10.6436-3.4538 2.7692-2.666 4.1101-6.2496 4.1101-11.1449 0-8.96096-5.5808-14.511459-14.5807-14.511459zm53.7171 8.829779c-.0862-6.0319-4.3261-9.4856336-11.6817-9.4856336-7.0099 0-11.6831 3.6714736-11.6831 9.1360636 0 2.31585.7791 4.28335 2.1637 5.55045 1.3422 1.2678 3.0283 2.0109 7.8751 3.4531 5.0621 1.5295 5.7981 1.923 5.7981 3.1908 0 1.6606-1.1687 2.5355-3.4615 2.5355-3.1594 0-4.4566-1.1373-4.6739-3.9338h-8.8257c.0424 6.5113 5.0184 10.4458 13.0239 10.4458 7.7882 0 12.6337-3.7581 12.6337-9.8779 0-2.5355-1.0381-4.7208-2.9421-6.207-1.3409-1.0493-3.2886-1.8357-6.9661-2.8844l-2.2061-.5686c-3.5053-.96087-3.9379-1.26715-3.9379-2.40375 0-1.35565 1.0382-2.09874 2.9422-2.09874 2.3359 0 3.5913 1.05003 3.635 3.14811zm20.3841 7.21178-3.9372 3.9338 2.5956 2.5349c-.5187.2617-.8652.3489-1.5138.3489-3.2892 0-5.4953-3.3219-5.4953-8.2165 0-5.157 2.1199-8.1733 5.7113-8.1733 3.6351 0 5.6683 2.8851 5.6683 8.0421 0 2.0541-.1729 3.278-.6055 4.065zm12.0295 12.2822-3.6345-3.76c2.1624-2.0535 3.504-5.9434 3.504-10.1835 0-8.69859-6.0579-15.0794-14.3224-15.0794-8.6104 0-14.7968 6.42541-14.7968 15.3857 0 9.0915 5.7114 15.2099 14.1919 15.2099 2.8984 0 5.1482-.5686 7.0092-1.7485l4.1107 4.1529zm29.6563-28.323759h-8.827v17.833959c0 3.059-1.342 4.5012-4.154 4.5012-3.029 0-4.4136-1.4422-4.4136-4.5012v-17.833959h-8.8263v17.133559c0 3.5836.3458 5.4639 1.427 7.2997 2.0338 3.497 5.8418 5.1569 11.6399 5.1569 4.499 0 7.529-.8296 9.778-2.8405 1.342-1.1805 2.294-2.71 2.813-4.5017.433-1.355.563-2.754.563-5.0265zm18.415 18.882059h-5.755l.822-2.666.735-2.4484c.476-1.4415.736-2.4469 1.471-4.85065l.649 2.44765.607 2.3598.69 2.3604zm1.556-18.882059h-8.696l-10.687 29.110159h8.956l1.471-4.1083h9.259l1.386 4.1083h8.956zm21.298 6.731699h4.369c2.727 0 4.069 1.00477 4.069 2.97166 0 2.0109-1.169 3.0156-3.592 2.9717h-4.846zm-8.74-6.731699v29.110159h8.783v-10.2281h3.721c3.418 0 4.413 1.1805 4.846 5.8574l.173 1.66c.13 1.7052.216 2.0109.519 2.7107h8.74l-.129-.2184c-.303-.4368-.476-1.3117-.606-2.9278l-.302-3.0608c-.391-4.0211-1.732-6.3809-4.198-7.2112 2.597-1.1805 4.241-3.9338 4.241-7.12453 0-2.14267-.649-4.02104-1.991-5.50787-1.947-2.22859-4.413-3.059559-9.087-3.059559zm54.055 0h-23.885v29.110159h24.317v-7.2558h-15.706v-4.5457h13.889v-6.4693h-13.889v-3.93386h15.274zm13.46 7.299669h2.64c2.509 0 4.024.52468 5.321 1.79114 1.255 1.26775 1.991 3.23535 1.991 5.55185 0 1.9662-.519 3.7587-1.47 5.0264-1.084 1.4423-2.64 2.0981-5.02 2.0535h-3.462zm-8.697-7.299669v29.110159h12.721c5.019 0 8.092-1.0055 10.645-3.4538 2.769-2.666 4.11-6.2496 4.11-11.1449 0-8.96096-5.581-14.511459-14.582-14.511459zm53.866 22.247959-6.189.0432c-2.378 0-4.023.0873-8.176.4375.863-.524 1.556-.8743 1.99-1.1366.129-.0433.648-.3496 1.644-.831 2.553-1.2671 4.845-2.666 6.533-3.9764 2.467-1.8804 3.678-4.2401 3.678-7.2564 0-5.50721-4.414-9.09146-11.163-9.09146-3.721 0-6.836 1.05002-8.957 3.01628-2.207 2.09742-3.115 4.6769-3.115 8.82908l.043.3929h7.529c.086-3.67083 1.341-5.24422 4.197-5.24422 2.076 0 3.419 1.09265 3.419 2.79652 0 1.618-.736 2.4477-3.722 4.2401-2.293 1.355-3.894 2.3605-4.976 3.1036-1.395.9723-2.712 2.0539-3.937 3.2346-1.99 2.0535-3.116 4.8507-3.116 7.8677 0 .0872 0 .2623.044.4368h24.274z" fill="#fff" fill-rule="evenodd"/></svg>